<svg viewBox="0 0 96 96" xmlns="http://www.w3.org/2000/svg" xmlns:xlink="http://www.w3.org/1999/xlink" id="Icons_Butterfly" overflow="hidden"><path d="M53.73 44.91C53.63 45.28 53.52 45.63 53.41 45.91 53.7347 47.6814 53.8954 49.4791 53.89 51.28 53.89 55.66 53.04 60.28 50.89 62.41 50.64 63.35 50.68 63.93 51.33 64 53.33 64.23 54.57 66.43 54.57 66.43 55.38 68.86 56.75 68.13 56.75 68.13 61.26 67.07 60.88 72.59 60.48 73.4 60.08 74.21 60.72 73.96 60.72 73.96 62.99 73.64 61.86 68.7 63.15 67.48 63.9111 66.825 64.4956 65.9895 64.85 65.05 66.85 65.95 67.44 63.35 67.44 63.35 67.44 63.35 69.44 64.29 69.96 61.81 72.32 51.06 58.05 46.14 53.73 44.91Z" fill="#FFFFFF"/><path d="M41.89 51.31C41.8824 49.4919 42.0465 47.6772 42.38 45.89 42.28 45.6 42.18 45.28 42.09 44.95 37.61 46.25 23.67 51.17 26 61.84 26.55 64.32 28.52 63.38 28.52 63.38 28.52 63.38 29.16 65.98 31.11 65.08 31.4644 66.0195 32.0489 66.855 32.81 67.51 34.1 68.73 32.97 73.67 35.24 73.99 35.24 73.99 35.97 74.24 35.48 73.43 34.99 72.62 34.7 67.1 39.21 68.16 39.21 68.16 40.58 68.89 41.39 66.46 41.39 66.46 42.62 64.26 44.63 64.03 45.23 63.97 45.31 63.47 45.13 62.67 42.8 60.62 41.89 55.85 41.89 51.31Z" fill="#FFFFFF"/><path d="M56.06 22.06C55.5427 21.4497 54.6392 21.3488 54 21.83 50.29 24.83 48.64 30.93 47.94 34.98 47.23 30.98 45.59 24.8 41.87 21.83 41.1952 21.3494 40.2586 21.5068 39.778 22.1815 39.3346 22.8041 39.4302 23.6605 40 24.17 43.87 27.27 45.24 36 45.44 39.1 45.44 39.1 45.44 39.1 45.44 39.1 45.0543 39.704 44.8114 40.388 44.73 41.1 44.6247 42.6255 44.9068 44.1528 45.55 45.54 45.1207 47.4024 44.9126 49.3089 44.93 51.22 44.93 56.41 46.27 60.62 47.93 60.62 49.59 60.62 50.93 56.41 50.93 51.22 50.945 49.3261 50.7403 47.4368 50.32 45.59 50.9747 44.1883 51.2637 42.6436 51.16 41.1 51.0839 40.3604 50.83 39.6502 50.42 39.03L50.42 39.03C50.62 35.93 51.99 27.2 55.86 24.1 56.4533 23.5787 56.5408 22.6866 56.06 22.06Z" fill="#FFFFFF"/><path d="M87.58 30.17C86.92 20.84 62.34 30.25 53.47 38.53 53.9293 39.5962 54.1511 40.7495 54.12 41.91 57.35 42.78 67.7 46.07 71.65 53.3 72.1633 53.4298 72.6905 53.4969 73.22 53.5 76.62 53.39 79 50.26 79.08 47.26 82.1324 46.4234 84.0101 43.3596 83.37 40.26 83.37 40.26 88 37.79 86 33.41 87.0939 32.7129 87.7043 31.4611 87.58 30.17ZM76 49.83C75.51 50.52 74.77 50.83 74.34 50.52 73.91 50.21 73.95 49.41 74.44 48.72 74.93 48.03 75.67 47.72 76.1 48.04 76.53 48.36 76.49 49.15 76 49.83ZM80.42 43.24C80.01 43.97 79.31 44.36 78.85 44.1 78.39 43.84 78.34 43.04 78.75 42.31 79.16 41.58 79.86 41.18 80.32 41.44 80.78 41.7 80.83 42.5 80.42 43.24ZM84 36.24C83.74 37.04 83.13 37.56 82.62 37.4 82.11 37.24 81.92 36.46 82.17 35.66 82.42 34.86 83.04 34.34 83.54 34.5 84.04 34.66 84.25 35.43 84 36.23ZM83.88 31.59C83.35 31.59 82.88 30.91 82.88 30.07 82.88 29.23 83.31 28.55 83.88 28.55 84.45 28.55 84.88 29.23 84.88 30.07 84.88 30.91 84.4 31.58 83.88 31.58Z" fill="#FFFFFF"/><path d="M9.81 33.41C7.81 37.79 12.48 40.22 12.48 40.22 11.8399 43.3196 13.7176 46.3834 16.77 47.22 16.85 50.22 19.23 53.35 22.63 53.46 23.1595 53.4569 23.6867 53.3898 24.2 53.26 28.15 46.03 38.5 42.74 41.73 41.87 41.7084 40.7103 41.9298 39.559 42.38 38.49 33.51 30.25 8.93 20.84 8.27 30.17 8.14195 31.4522 8.73492 32.6997 9.81 33.41ZM19.75 48C20.18 47.69 20.93 48 21.41 48.68 21.89 49.36 21.95 50.17 21.51 50.48 21.07 50.79 20.34 50.48 19.85 49.79 19.36 49.1 19.32 48.35 19.75 48ZM15.53 41.4C15.99 41.14 16.7 41.53 17.11 42.27 17.52 43.01 17.47 43.8 17.01 44.06 16.55 44.32 15.84 43.93 15.43 43.2 15.02 42.47 15.07 41.7 15.53 41.44ZM12.31 34.45C12.81 34.29 13.43 34.81 13.68 35.61 13.93 36.41 13.73 37.19 13.23 37.35 12.73 37.51 12.11 36.99 11.85 36.19 11.59 35.39 11.8 34.65 12.31 34.49ZM11 30.06C11 29.22 11.43 28.54 12 28.54 12.57 28.54 12.95 29.22 12.95 30.06 12.95 30.9 12.53 31.58 12 31.58 11.47 31.58 11 30.9 11 30.06Z" fill="#FFFFFF"/></svg>